<svg preserveAspectRatio="none" width="100%" height="100%" overflow="visible" style="display: block;" viewBox="0 0 59.625 59.625" fill="none" xmlns="http://www.w3.org/2000/svg">
<g id="Group">
<g id="Vector">
<mask id="path-1-outside-1_0_4" maskUnits="userSpaceOnUse" x="-0.875008" y="-0.875001" width="61" height="61" fill="black">
<rect fill="white" x="-0.875008" y="-0.875001" width="61" height="61"/>
<path d="M26.4475 59.3653C19.7875 58.5048 14.0458 55.6791 9.45467 50.9813C8.00179 49.5045 7.22305 48.5394 6.08399 46.8068C4.45677 44.3648 3.16662 41.4345 2.44599 38.5507C1.7951 35.9576 1.644 34.5971 1.65563 31.4574C1.65563 29.0155 1.92296 24.3409 2.10892 23.3177C2.16704 23.0037 2.13217 22.9456 1.78348 22.7711C1.16746 22.4804 0.714162 22.0502 0.43521 21.4688C-0.111072 20.3873 -0.111072 20.4338 1.89971 11.4917C3.96861 2.27049 3.89887 2.46817 5.04955 1.78211C5.9329 1.24721 6.47918 1.20069 7.9553 1.50303C8.88514 1.70071 9.18734 1.73559 9.23383 1.61931C9.33844 1.30535 10.1056 0.584395 10.5705 0.363458C11.3027 0.00298183 12.3372 0.0494949 14.4293 0.514626C16.4401 0.968128 16.7074 1.08441 17.3118 1.74722C17.893 2.38678 18.0906 2.89842 18.0906 3.70077C18.0906 4.56126 13.546 24.8991 13.2089 25.5619C12.8718 26.2131 12.1047 26.841 11.3376 27.062C10.7681 27.2248 10.6053 27.2248 9.80336 27.0736L8.92001 26.9108L8.8154 28.0155C8.64106 30.0737 8.7108 34.3645 8.93163 35.5506C10.0707 41.6322 13.6157 46.7021 18.9274 49.8882C22.5422 52.0511 27.1216 53.1209 31.3524 52.7953C39.0701 52.2139 45.7301 47.7603 48.9962 40.9926C50.7047 37.4576 51.2162 34.5273 50.9721 29.7132C50.9023 28.248 50.821 27.0154 50.7977 26.9689C50.7629 26.934 50.3444 26.9806 49.8446 27.0736C49.031 27.2248 48.8799 27.2248 48.2988 27.062C47.5317 26.841 46.7645 26.2131 46.4275 25.5619C46.0904 24.8991 41.5458 4.56126 41.5458 3.70077C41.5458 2.93331 41.7434 2.41003 42.2432 1.82862C42.8476 1.15418 43.2893 0.9565 45.1954 0.526254C47.3341 0.0494949 48.3336 0.00298183 49.0659 0.363458C49.5308 0.584395 50.2979 1.30535 50.4025 1.61931C50.449 1.73559 50.7512 1.70071 51.6811 1.50303C53.1572 1.20069 53.7035 1.24721 54.5868 1.78211C55.7259 2.46817 55.6794 2.29375 57.6902 11.201C59.6893 20.0734 59.7474 20.4338 59.2128 21.4571C58.9455 21.9688 58.4224 22.4804 57.7715 22.8525C57.5972 22.9572 57.5856 23.0851 57.7018 24.2479C58.1551 28.969 58.1667 33.9924 57.7134 36.5157C55.8654 46.9696 48.1477 55.4582 37.7799 58.4583C35.2578 59.1792 33.3748 59.4467 30.3412 59.4932C28.5513 59.5165 27.2727 59.4816 26.4475 59.3653ZM33.2702 57.8536C43.5101 56.5164 51.9833 49.6906 55.2377 40.1786C56.6209 36.0855 56.8766 32.5738 56.307 25.3526C56.1443 23.2711 56.1443 23.2711 55.6561 23.3991C55.3307 23.4805 55.2726 23.5502 55.2726 23.8409C55.2726 24.7828 54.2381 26.0154 53.1688 26.3294C52.8318 26.434 52.4831 26.5154 52.4017 26.5154C52.2738 26.5154 52.2506 26.6666 52.2971 27.1899C52.4598 28.969 52.4947 29.6551 52.4831 31.8063C52.4831 33.2947 52.4249 34.5506 52.3087 35.2831C51.7624 38.853 50.3444 42.295 48.2174 45.1788C47.183 46.5742 44.6608 49.0626 43.3009 50.0278C40.1859 52.2372 36.7571 53.6093 33.0378 54.1326C31.457 54.3535 28.3072 54.3535 26.6684 54.1209C17.2072 52.8069 9.47791 45.6556 7.62986 36.5506C7.13007 34.1087 7.07195 32.3761 7.3509 27.7713C7.40902 26.7131 7.3974 26.5154 7.2463 26.5154C7.15331 26.5154 6.81624 26.434 6.4908 26.341C5.43311 26.027 4.36379 24.7828 4.36379 23.8526C4.36379 23.5153 4.20107 23.3758 3.79426 23.3758C3.61992 23.3758 3.57342 23.5153 3.51531 24.0968C3.28285 26.4224 3.16662 28.8876 3.155 31.4574C3.14337 34.6668 3.27123 35.7483 3.92211 38.3181C6.08399 46.7602 12.6859 53.807 21.1126 56.6326C22.9606 57.2489 25.3317 57.7722 27.1449 57.9466C28.3653 58.0746 32.0266 58.0164 33.2702 57.8536ZM11.3027 25.4689C11.5119 25.3526 11.756 25.1317 11.849 24.9805C11.942 24.8293 13.0694 19.9687 14.3712 14.1778L16.7191 3.64263L16.4982 3.20076C16.382 2.95656 16.1495 2.65423 15.9868 2.53794C15.58 2.24724 12.0931 1.47977 11.5933 1.5728C11.3841 1.60768 11.047 1.78211 10.8494 1.96816C10.4426 2.32864 10.6867 1.31698 7.44389 15.8872L5.72368 23.5851L5.94452 24.027C6.07237 24.2712 6.29321 24.5619 6.45593 24.6782C6.74651 24.8875 9.94283 25.6782 10.5821 25.6898C10.7797 25.7015 11.0935 25.5968 11.3027 25.4689ZM51.0651 25.2945C52.0646 25.0735 53.0177 24.7944 53.1804 24.6782C53.3432 24.5619 53.564 24.2712 53.6919 24.027L53.9127 23.5851L52.2041 15.9453C48.8567 0.933243 49.1938 2.32864 48.7869 1.96816C48.5894 1.79374 48.2523 1.60768 48.0431 1.5728C47.5433 1.47977 44.0564 2.24724 43.6496 2.53794C43.4868 2.65423 43.2544 2.95656 43.1382 3.20076L42.9173 3.64263L45.2652 14.1778C46.5669 19.9687 47.6944 24.8293 47.7874 24.9805C48.0082 25.3177 48.6242 25.7015 48.9729 25.7015C49.124 25.7015 50.0655 25.5154 51.0651 25.2945ZM4.63112 21.6664C4.66599 21.4804 5.59583 17.3407 6.68839 12.4452C7.78095 7.54973 8.68755 3.46821 8.69917 3.37518C8.72242 3.20076 7.43226 2.81702 6.71164 2.80539C6.20023 2.79377 5.59583 3.08447 5.35174 3.45658C5.14253 3.77054 1.57427 19.5268 1.57427 20.1315C1.57427 20.585 1.93458 21.1897 2.31814 21.3874C2.56222 21.5269 4.07321 21.9339 4.43353 21.9688C4.50326 21.9804 4.59625 21.8409 4.63112 21.6664ZM56.1792 21.7478C56.7138 21.6199 57.2601 21.4339 57.388 21.3409C57.7715 21.085 58.0621 20.5618 58.0621 20.1431C58.0621 19.5501 54.4938 3.77054 54.2846 3.45658C54.0405 3.08447 53.4362 2.79377 52.9247 2.80539C52.2041 2.81702 50.914 3.20076 50.9372 3.37518C50.9488 3.46821 51.8554 7.54973 52.948 12.4452C54.0405 17.3407 54.9704 21.4804 55.0053 21.6664C55.0401 21.8409 55.0982 21.9804 55.1447 21.9804C55.1796 21.9804 55.6561 21.8758 56.1792 21.7478Z"/>
</mask>
<path d="M26.4475 59.3653C19.7875 58.5048 14.0458 55.6791 9.45467 50.9813C8.00179 49.5045 7.22305 48.5394 6.08399 46.8068C4.45677 44.3648 3.16662 41.4345 2.44599 38.5507C1.7951 35.9576 1.644 34.5971 1.65563 31.4574C1.65563 29.0155 1.92296 24.3409 2.10892 23.3177C2.16704 23.0037 2.13217 22.9456 1.78348 22.7711C1.16746 22.4804 0.714162 22.0502 0.43521 21.4688C-0.111072 20.3873 -0.111072 20.4338 1.89971 11.4917C3.96861 2.27049 3.89887 2.46817 5.04955 1.78211C5.9329 1.24721 6.47918 1.20069 7.9553 1.50303C8.88514 1.70071 9.18734 1.73559 9.23383 1.61931C9.33844 1.30535 10.1056 0.584395 10.5705 0.363458C11.3027 0.00298183 12.3372 0.0494949 14.4293 0.514626C16.4401 0.968128 16.7074 1.08441 17.3118 1.74722C17.893 2.38678 18.0906 2.89842 18.0906 3.70077C18.0906 4.56126 13.546 24.8991 13.2089 25.5619C12.8718 26.2131 12.1047 26.841 11.3376 27.062C10.7681 27.2248 10.6053 27.2248 9.80336 27.0736L8.92001 26.9108L8.8154 28.0155C8.64106 30.0737 8.7108 34.3645 8.93163 35.5506C10.0707 41.6322 13.6157 46.7021 18.9274 49.8882C22.5422 52.0511 27.1216 53.1209 31.3524 52.7953C39.0701 52.2139 45.7301 47.7603 48.9962 40.9926C50.7047 37.4576 51.2162 34.5273 50.9721 29.7132C50.9023 28.248 50.821 27.0154 50.7977 26.9689C50.7629 26.934 50.3444 26.9806 49.8446 27.0736C49.031 27.2248 48.8799 27.2248 48.2988 27.062C47.5317 26.841 46.7645 26.2131 46.4275 25.5619C46.0904 24.8991 41.5458 4.56126 41.5458 3.70077C41.5458 2.93331 41.7434 2.41003 42.2432 1.82862C42.8476 1.15418 43.2893 0.9565 45.1954 0.526254C47.3341 0.0494949 48.3336 0.00298183 49.0659 0.363458C49.5308 0.584395 50.2979 1.30535 50.4025 1.61931C50.449 1.73559 50.7512 1.70071 51.6811 1.50303C53.1572 1.20069 53.7035 1.24721 54.5868 1.78211C55.7259 2.46817 55.6794 2.29375 57.6902 11.201C59.6893 20.0734 59.7474 20.4338 59.2128 21.4571C58.9455 21.9688 58.4224 22.4804 57.7715 22.8525C57.5972 22.9572 57.5856 23.0851 57.7018 24.2479C58.1551 28.969 58.1667 33.9924 57.7134 36.5157C55.8654 46.9696 48.1477 55.4582 37.7799 58.4583C35.2578 59.1792 33.3748 59.4467 30.3412 59.4932C28.5513 59.5165 27.2727 59.4816 26.4475 59.3653ZM33.2702 57.8536C43.5101 56.5164 51.9833 49.6906 55.2377 40.1786C56.6209 36.0855 56.8766 32.5738 56.307 25.3526C56.1443 23.2711 56.1443 23.2711 55.6561 23.3991C55.3307 23.4805 55.2726 23.5502 55.2726 23.8409C55.2726 24.7828 54.2381 26.0154 53.1688 26.3294C52.8318 26.434 52.4831 26.5154 52.4017 26.5154C52.2738 26.5154 52.2506 26.6666 52.2971 27.1899C52.4598 28.969 52.4947 29.6551 52.4831 31.8063C52.4831 33.2947 52.4249 34.5506 52.3087 35.2831C51.7624 38.853 50.3444 42.295 48.2174 45.1788C47.183 46.5742 44.6608 49.0626 43.3009 50.0278C40.1859 52.2372 36.7571 53.6093 33.0378 54.1326C31.457 54.3535 28.3072 54.3535 26.6684 54.1209C17.2072 52.8069 9.47791 45.6556 7.62986 36.5506C7.13007 34.1087 7.07195 32.3761 7.3509 27.7713C7.40902 26.7131 7.3974 26.5154 7.2463 26.5154C7.15331 26.5154 6.81624 26.434 6.4908 26.341C5.43311 26.027 4.36379 24.7828 4.36379 23.8526C4.36379 23.5153 4.20107 23.3758 3.79426 23.3758C3.61992 23.3758 3.57342 23.5153 3.51531 24.0968C3.28285 26.4224 3.16662 28.8876 3.155 31.4574C3.14337 34.6668 3.27123 35.7483 3.92211 38.3181C6.08399 46.7602 12.6859 53.807 21.1126 56.6326C22.9606 57.2489 25.3317 57.7722 27.1449 57.9466C28.3653 58.0746 32.0266 58.0164 33.2702 57.8536ZM11.3027 25.4689C11.5119 25.3526 11.756 25.1317 11.849 24.9805C11.942 24.8293 13.0694 19.9687 14.3712 14.1778L16.7191 3.64263L16.4982 3.20076C16.382 2.95656 16.1495 2.65423 15.9868 2.53794C15.58 2.24724 12.0931 1.47977 11.5933 1.5728C11.3841 1.60768 11.047 1.78211 10.8494 1.96816C10.4426 2.32864 10.6867 1.31698 7.44389 15.8872L5.72368 23.5851L5.94452 24.027C6.07237 24.2712 6.29321 24.5619 6.45593 24.6782C6.74651 24.8875 9.94283 25.6782 10.5821 25.6898C10.7797 25.7015 11.0935 25.5968 11.3027 25.4689ZM51.0651 25.2945C52.0646 25.0735 53.0177 24.7944 53.1804 24.6782C53.3432 24.5619 53.564 24.2712 53.6919 24.027L53.9127 23.5851L52.2041 15.9453C48.8567 0.933243 49.1938 2.32864 48.7869 1.96816C48.5894 1.79374 48.2523 1.60768 48.0431 1.5728C47.5433 1.47977 44.0564 2.24724 43.6496 2.53794C43.4868 2.65423 43.2544 2.95656 43.1382 3.20076L42.9173 3.64263L45.2652 14.1778C46.5669 19.9687 47.6944 24.8293 47.7874 24.9805C48.0082 25.3177 48.6242 25.7015 48.9729 25.7015C49.124 25.7015 50.0655 25.5154 51.0651 25.2945ZM4.63112 21.6664C4.66599 21.4804 5.59583 17.3407 6.68839 12.4452C7.78095 7.54973 8.68755 3.46821 8.69917 3.37518C8.72242 3.20076 7.43226 2.81702 6.71164 2.80539C6.20023 2.79377 5.59583 3.08447 5.35174 3.45658C5.14253 3.77054 1.57427 19.5268 1.57427 20.1315C1.57427 20.585 1.93458 21.1897 2.31814 21.3874C2.56222 21.5269 4.07321 21.9339 4.43353 21.9688C4.50326 21.9804 4.59625 21.8409 4.63112 21.6664ZM56.1792 21.7478C56.7138 21.6199 57.2601 21.4339 57.388 21.3409C57.7715 21.085 58.0621 20.5618 58.0621 20.1431C58.0621 19.5501 54.4938 3.77054 54.2846 3.45658C54.0405 3.08447 53.4362 2.79377 52.9247 2.80539C52.2041 2.81702 50.914 3.20076 50.9372 3.37518C50.9488 3.46821 51.8554 7.54973 52.948 12.4452C54.0405 17.3407 54.9704 21.4804 55.0053 21.6664C55.0401 21.8409 55.0982 21.9804 55.1447 21.9804C55.1796 21.9804 55.6561 21.8758 56.1792 21.7478Z" fill="var(--fill-0, #8F8F8F)"/>
<path d="M26.4475 59.3653C19.7875 58.5048 14.0458 55.6791 9.45467 50.9813C8.00179 49.5045 7.22305 48.5394 6.08399 46.8068C4.45677 44.3648 3.16662 41.4345 2.44599 38.5507C1.7951 35.9576 1.644 34.5971 1.65563 31.4574C1.65563 29.0155 1.92296 24.3409 2.10892 23.3177C2.16704 23.0037 2.13217 22.9456 1.78348 22.7711C1.16746 22.4804 0.714162 22.0502 0.43521 21.4688C-0.111072 20.3873 -0.111072 20.4338 1.89971 11.4917C3.96861 2.27049 3.89887 2.46817 5.04955 1.78211C5.9329 1.24721 6.47918 1.20069 7.9553 1.50303C8.88514 1.70071 9.18734 1.73559 9.23383 1.61931C9.33844 1.30535 10.1056 0.584395 10.5705 0.363458C11.3027 0.00298183 12.3372 0.0494949 14.4293 0.514626C16.4401 0.968128 16.7074 1.08441 17.3118 1.74722C17.893 2.38678 18.0906 2.89842 18.0906 3.70077C18.0906 4.56126 13.546 24.8991 13.2089 25.5619C12.8718 26.2131 12.1047 26.841 11.3376 27.062C10.7681 27.2248 10.6053 27.2248 9.80336 27.0736L8.92001 26.9108L8.8154 28.0155C8.64106 30.0737 8.7108 34.3645 8.93163 35.5506C10.0707 41.6322 13.6157 46.7021 18.9274 49.8882C22.5422 52.0511 27.1216 53.1209 31.3524 52.7953C39.0701 52.2139 45.7301 47.7603 48.9962 40.9926C50.7047 37.4576 51.2162 34.5273 50.9721 29.7132C50.9023 28.248 50.821 27.0154 50.7977 26.9689C50.7629 26.934 50.3444 26.9806 49.8446 27.0736C49.031 27.2248 48.8799 27.2248 48.2988 27.062C47.5317 26.841 46.7645 26.2131 46.4275 25.5619C46.0904 24.8991 41.5458 4.56126 41.5458 3.70077C41.5458 2.93331 41.7434 2.41003 42.2432 1.82862C42.8476 1.15418 43.2893 0.9565 45.1954 0.526254C47.3341 0.0494949 48.3336 0.00298183 49.0659 0.363458C49.5308 0.584395 50.2979 1.30535 50.4025 1.61931C50.449 1.73559 50.7512 1.70071 51.6811 1.50303C53.1572 1.20069 53.7035 1.24721 54.5868 1.78211C55.7259 2.46817 55.6794 2.29375 57.6902 11.201C59.6893 20.0734 59.7474 20.4338 59.2128 21.4571C58.9455 21.9688 58.4224 22.4804 57.7715 22.8525C57.5972 22.9572 57.5856 23.0851 57.7018 24.2479C58.1551 28.969 58.1667 33.9924 57.7134 36.5157C55.8654 46.9696 48.1477 55.4582 37.7799 58.4583C35.2578 59.1792 33.3748 59.4467 30.3412 59.4932C28.5513 59.5165 27.2727 59.4816 26.4475 59.3653ZM33.2702 57.8536C43.5101 56.5164 51.9833 49.6906 55.2377 40.1786C56.6209 36.0855 56.8766 32.5738 56.307 25.3526C56.1443 23.2711 56.1443 23.2711 55.6561 23.3991C55.3307 23.4805 55.2726 23.5502 55.2726 23.8409C55.2726 24.7828 54.2381 26.0154 53.1688 26.3294C52.8318 26.434 52.4831 26.5154 52.4017 26.5154C52.2738 26.5154 52.2506 26.6666 52.2971 27.1899C52.4598 28.969 52.4947 29.6551 52.4831 31.8063C52.4831 33.2947 52.4249 34.5506 52.3087 35.2831C51.7624 38.853 50.3444 42.295 48.2174 45.1788C47.183 46.5742 44.6608 49.0626 43.3009 50.0278C40.1859 52.2372 36.7571 53.6093 33.0378 54.1326C31.457 54.3535 28.3072 54.3535 26.6684 54.1209C17.2072 52.8069 9.47791 45.6556 7.62986 36.5506C7.13007 34.1087 7.07195 32.3761 7.3509 27.7713C7.40902 26.7131 7.3974 26.5154 7.2463 26.5154C7.15331 26.5154 6.81624 26.434 6.4908 26.341C5.43311 26.027 4.36379 24.7828 4.36379 23.8526C4.36379 23.5153 4.20107 23.3758 3.79426 23.3758C3.61992 23.3758 3.57342 23.5153 3.51531 24.0968C3.28285 26.4224 3.16662 28.8876 3.155 31.4574C3.14337 34.6668 3.27123 35.7483 3.92211 38.3181C6.08399 46.7602 12.6859 53.807 21.1126 56.6326C22.9606 57.2489 25.3317 57.7722 27.1449 57.9466C28.3653 58.0746 32.0266 58.0164 33.2702 57.8536ZM11.3027 25.4689C11.5119 25.3526 11.756 25.1317 11.849 24.9805C11.942 24.8293 13.0694 19.9687 14.3712 14.1778L16.7191 3.64263L16.4982 3.20076C16.382 2.95656 16.1495 2.65423 15.9868 2.53794C15.58 2.24724 12.0931 1.47977 11.5933 1.5728C11.3841 1.60768 11.047 1.78211 10.8494 1.96816C10.4426 2.32864 10.6867 1.31698 7.44389 15.8872L5.72368 23.5851L5.94452 24.027C6.07237 24.2712 6.29321 24.5619 6.45593 24.6782C6.74651 24.8875 9.94283 25.6782 10.5821 25.6898C10.7797 25.7015 11.0935 25.5968 11.3027 25.4689ZM51.0651 25.2945C52.0646 25.0735 53.0177 24.7944 53.1804 24.6782C53.3432 24.5619 53.564 24.2712 53.6919 24.027L53.9127 23.5851L52.2041 15.9453C48.8567 0.933243 49.1938 2.32864 48.7869 1.96816C48.5894 1.79374 48.2523 1.60768 48.0431 1.5728C47.5433 1.47977 44.0564 2.24724 43.6496 2.53794C43.4868 2.65423 43.2544 2.95656 43.1382 3.20076L42.9173 3.64263L45.2652 14.1778C46.5669 19.9687 47.6944 24.8293 47.7874 24.9805C48.0082 25.3177 48.6242 25.7015 48.9729 25.7015C49.124 25.7015 50.0655 25.5154 51.0651 25.2945ZM4.63112 21.6664C4.66599 21.4804 5.59583 17.3407 6.68839 12.4452C7.78095 7.54973 8.68755 3.46821 8.69917 3.37518C8.72242 3.20076 7.43226 2.81702 6.71164 2.80539C6.20023 2.79377 5.59583 3.08447 5.35174 3.45658C5.14253 3.77054 1.57427 19.5268 1.57427 20.1315C1.57427 20.585 1.93458 21.1897 2.31814 21.3874C2.56222 21.5269 4.07321 21.9339 4.43353 21.9688C4.50326 21.9804 4.59625 21.8409 4.63112 21.6664ZM56.1792 21.7478C56.7138 21.6199 57.2601 21.4339 57.388 21.3409C57.7715 21.085 58.0621 20.5618 58.0621 20.1431C58.0621 19.5501 54.4938 3.77054 54.2846 3.45658C54.0405 3.08447 53.4362 2.79377 52.9247 2.80539C52.2041 2.81702 50.914 3.20076 50.9372 3.37518C50.9488 3.46821 51.8554 7.54973 52.948 12.4452C54.0405 17.3407 54.9704 21.4804 55.0053 21.6664C55.0401 21.8409 55.0982 21.9804 55.1447 21.9804C55.1796 21.9804 55.6561 21.8758 56.1792 21.7478Z" stroke="var(--stroke-0, #8F8F8F)" stroke-width="0.25" mask="url(#path-1-outside-1_0_4)"/>
</g>
</g>
</svg>
