<svg preserveAspectRatio="none" width="100%" height="100%" overflow="visible" style="display: block;" viewBox="0 0 63.1095 47.2166" fill="none" xmlns="http://www.w3.org/2000/svg">
<g id="Group">
<path id="Vector" d="M39.4005 47.0174C38.063 46.5424 37.2255 45.6924 36.9255 44.5174C36.7505 43.8549 37.0005 43.9674 34.488 43.4924C28.038 42.2924 22.4505 39.4174 19.4005 35.7174C16.163 31.7924 13.6505 25.3549 12.7255 18.5799L12.5755 17.4799L10.3755 15.9549C9.16303 15.1049 7.25054 13.7674 6.11304 12.9924C2.07554 10.2174 0.500543 8.92987 0.163043 8.15487C-0.0869564 7.57987 -0.0494565 7.00487 0.275543 6.44237C0.838043 5.42987 1.98804 5.16737 3.18804 5.77987C5.01304 6.72987 8.10054 6.95487 11.863 6.41737C15.6505 5.87987 17.7505 5.05487 21.3255 2.71737C22.3755 2.04237 23.6005 1.31737 24.038 1.11737C26.813 -0.145133 30.838 -0.345133 35.313 0.554867C40.6755 1.64237 46.088 4.96737 50.013 9.59237L50.913 10.6424L52.163 10.5549C52.863 10.5174 54.2755 10.3799 55.3005 10.2674C57.8505 9.97987 59.1005 10.0049 60.0505 10.3674C60.9255 10.6924 61.788 11.5049 62.213 12.3924C62.963 13.9174 63.313 18.5924 62.988 22.3674C62.4255 28.7299 59.7255 34.0674 55.113 37.9174C52.938 39.7424 49.713 41.5549 46.7755 42.6299L45.2505 43.1799L45.1755 43.8049C44.913 45.8174 43.388 47.0924 41.1255 47.2049C40.3005 47.2424 39.9005 47.1924 39.4005 47.0174ZM42.0755 44.8799C42.563 44.6549 43.1005 44.0674 42.9505 43.9174C42.913 43.8799 42.638 43.9174 42.3505 44.0049C42.0505 44.0924 41.2005 44.1674 40.463 44.1674C39.713 44.1674 39.113 44.2049 39.113 44.2424C39.113 44.3799 39.6755 44.8549 39.988 44.9799C40.5005 45.1799 41.513 45.1299 42.0755 44.8799ZM41.4255 41.6049C41.763 41.3924 42.3755 40.8674 42.8005 40.4424C45.113 38.1299 46.2755 35.0174 46.638 30.1549C46.863 27.2174 46.5255 23.0674 45.738 18.9299C45.4005 17.1674 44.488 13.4549 44.363 13.3299C44.1755 13.1174 38.463 14.2174 33.4255 15.4299C30.738 16.0924 25.1255 17.4174 24.538 17.5549L24.2755 17.6174L24.5005 19.1049C25.813 27.6674 29.138 34.7924 33.588 38.5174C35.4505 40.0924 37.388 41.1424 39.488 41.7424C40.6005 42.0549 40.7255 42.0549 41.4255 41.6049ZM32.988 40.7799C32.1255 40.1299 29.5255 37.4049 28.788 36.3674C25.7755 32.1674 23.613 26.4674 22.538 19.9549C22.3505 18.8424 22.188 17.9174 22.1755 17.8924C22.163 17.8799 21.6255 17.9174 20.988 17.9924C20.3505 18.0674 18.7005 18.1299 17.338 18.1174H14.8505L14.9255 18.5924C15.913 24.6049 17.5255 29.2174 19.913 32.8049C22.3505 36.4549 26.3005 39.0674 31.8505 40.6799C32.6505 40.9174 33.3255 41.1049 33.363 41.1049C33.4005 41.1174 33.2255 40.9674 32.988 40.7799ZM46.2005 40.6049C52.0255 38.4424 56.3005 34.8924 58.6755 30.2174C60.413 26.7924 61.088 23.2799 60.9505 18.3799C60.8755 15.6424 60.613 13.8174 60.2005 13.0674C59.6505 12.0924 58.913 11.9549 55.9005 12.3049C55.0255 12.4049 52.7005 12.5799 50.738 12.6799C48.7755 12.7799 47.0255 12.9049 46.8505 12.9424L46.5255 13.0049L46.8755 14.3424C47.0755 15.0799 47.4005 16.4674 47.6005 17.4299C49.6505 27.2424 49.1255 34.9049 46.0505 39.8049C45.6755 40.3924 45.4005 40.8674 45.4255 40.8674C45.4505 40.8674 45.8005 40.7424 46.2005 40.6049ZM20.863 15.9299C23.788 15.5924 25.338 15.2674 34.4255 13.0549C39.6005 11.8049 43.988 11.0049 46.9005 10.7924C47.563 10.7424 48.113 10.6549 48.113 10.6049C48.113 10.4174 46.363 8.62987 45.3505 7.79237C40.813 4.01737 34.888 1.92987 29.3005 2.15487C28.413 2.19237 27.2505 2.31737 26.738 2.42987C25.463 2.71737 23.8255 3.50487 22.1755 4.64237C20.3255 5.89237 19.263 6.50487 17.9505 7.05487C13.688 8.81737 6.77554 9.34237 3.33804 8.17987C2.97554 8.05487 2.86304 8.04237 2.98804 8.15487C3.72554 8.74237 5.60054 10.0799 8.17554 11.8424C9.82553 12.9799 11.8255 14.3549 12.613 14.9174C13.713 15.6924 14.1755 15.9424 14.613 16.0049C15.688 16.1549 19.313 16.1174 20.863 15.9299Z" fill="var(--fill-0, #8F8F8F)"/>
</g>
</svg>
