<svg preserveAspectRatio="none" width="100%" height="100%" overflow="visible" style="display: block;" viewBox="0 0 50.0839 64" fill="none" xmlns="http://www.w3.org/2000/svg">
<g id="Group">
<path id="Vector" d="M13.2877 63.85C12.7627 63.55 12.7377 63.3875 12.7252 61.0875V58.875L6.33769 31.75C2.38769 14.925 -0.0248076 4.45 0.000192429 4.1625C0.0251924 3.85 0.137692 3.6375 0.350192 3.475C0.675193 3.2375 11.2627 0 11.7127 0C11.8502 0 12.1002 0.125 12.2752 0.2875C12.5002 0.475 14.7502 5.6125 20.0502 18C24.1627 27.5875 27.5502 35.475 27.5877 35.525C27.6627 35.6125 32.3502 24.825 32.3502 24.5875C32.3502 24.5375 31.2002 24.5 29.7877 24.5C27.2252 24.5 27.2127 24.5 26.9127 24.1875L26.6002 23.8875V18.7V13.5125L26.8877 13.1875C27.1377 12.9 27.6002 12.7875 32.7627 11.75C36.6627 10.975 38.4377 10.6625 38.6377 10.7375C38.7877 10.8 41.3627 13.05 44.3502 15.7375C48.7752 19.7125 49.8127 20.7125 49.9502 21.0875C50.0752 21.4375 50.1002 22.1625 50.0752 23.75L50.0252 25.9375L46.3502 42.0625L42.6752 58.1875L42.6127 60.7875L42.5377 63.4L42.1877 63.7L41.8377 64H27.6877C17.2752 63.9875 13.4752 63.95 13.2877 63.85ZM19.1002 60.8125V59.75H16.9752H14.8502V60.8125V61.875H16.9752H19.1002V60.8125ZM24.4752 60.8125V59.75H22.8502H21.2252V60.8125V61.875H22.8502H24.4752V60.8125ZM28.7252 60.8125V59.75H27.6627H26.6002V60.8125V61.875H27.6627H28.7252V60.8125ZM34.0752 60.7875L34.1127 59.75H32.4752H30.8502V60.8125V61.8875L32.4502 61.85L34.0377 61.8125L34.0752 60.7875ZM40.4752 60.8125V59.75H38.3502H36.2252V60.8125V61.875H38.3502H40.4752V60.8125ZM19.1002 56.225C19.1002 54.5625 18.8502 53.8625 18.0002 53.1C17.2877 52.4625 16.4877 52.25 14.7627 52.25C13.4627 52.25 13.3377 52.275 13.4002 52.475C13.4752 52.7 14.6002 57.5 14.6002 57.575C14.6002 57.6 15.6127 57.625 16.8502 57.625H19.1002V56.225ZM26.6002 48.1625V38.6875L18.8377 20.5625C14.5627 10.6 11.0627 2.425 11.0502 2.4125C11.0127 2.3625 2.57519 4.875 2.40019 4.9875C2.30019 5.0375 3.93769 12.2 7.55019 27.5625C10.4627 39.9375 12.8502 50.075 12.8502 50.1C12.8502 50.1125 13.6002 50.125 14.5252 50.125C17.2002 50.125 18.2877 50.45 19.5502 51.65C20.7752 52.8125 21.2252 54.05 21.2252 56.3125V57.625H23.9127H26.6002V48.1625ZM30.8502 49.3375V41.05L30.2002 40.5625C29.8377 40.3 29.3502 39.95 29.1377 39.775L28.7252 39.475V48.55V57.625H29.7877H30.8502V49.3375ZM34.1127 55.875C34.2002 53.9375 34.3002 53.5375 34.9752 52.5375C35.5377 51.6875 36.2127 51.1 37.1377 50.675C38.0752 50.25 38.9002 50.125 40.7377 50.125C42.3002 50.125 42.3502 50.1125 42.4127 49.85C43.8502 43.75 47.8502 25.575 47.8502 25.125V24.5H41.3002H34.7502L32.0502 30.8C30.5627 34.2625 29.3502 37.15 29.3502 37.2125C29.3627 37.2625 30.0877 37.85 30.9627 38.5C31.8502 39.15 32.6627 39.8375 32.7752 40.025C32.9502 40.3125 32.9752 41.3125 32.9752 49V57.6375L33.5127 57.6L34.0377 57.5625L34.1127 55.875ZM41.2502 55C41.5752 53.5875 41.8377 52.3875 41.8377 52.325C41.8502 52.275 41.1002 52.2375 40.2002 52.275C38.6502 52.3125 38.4877 52.35 37.8752 52.675C36.6002 53.375 36.2252 54.175 36.2252 56.1875V57.625L38.4377 57.6L40.6627 57.5625L41.2502 55ZM47.8502 22.0625C47.8502 21.8125 46.8877 20.8875 42.9252 17.3125L38.0002 12.875L33.6377 13.75C31.2502 14.225 29.1627 14.65 29.0127 14.6875L28.7252 14.75V18.5625V22.375H38.2877H47.8502V22.0625Z" fill="var(--fill-0, #8F8F8F)"/>
</g>
</svg>
