<svg preserveAspectRatio="none" width="100%" height="100%" overflow="visible" style="display: block;" viewBox="0 0 63.9655 63.9489" fill="none" xmlns="http://www.w3.org/2000/svg">
<g id="Group">
<path id="Vector" d="M42.1725 63.786C40.91 63.386 39.9225 62.461 39.485 61.2985C39.2725 60.7235 39.2475 60.336 39.2475 58.0985C39.26 55.861 39.235 55.4235 38.9975 54.586C38.535 52.8735 37.8975 51.911 36.735 51.1235C35.4475 50.2484 34.0975 49.6609 32.5975 49.2984C31.2725 48.9984 31.135 49.0234 30.96 49.6484C30.56 51.1735 29.235 53.386 28.135 54.361C26.4975 55.8235 23.0975 56.636 21.1225 56.0485C20.0725 55.736 19.2725 54.861 19.0475 53.7985C19.01 53.5985 18.7475 50.536 18.4725 46.9984L17.96 40.5734L13.5225 29.8734C11.085 23.9859 9.01005 19.0734 8.93505 18.9609C8.84755 18.8484 7.32255 17.5109 5.53505 15.9859C3.74755 14.4734 2.01005 12.9109 1.68505 12.5109C0.0975483 10.6109 -0.414952 7.96092 0.347548 5.61092C0.672548 4.63592 1.07255 3.94842 2.28505 2.36092C3.67255 0.535919 4.41005 0.135919 6.61005 0.0234185C9.92255 -0.151582 13.7475 0.660919 17.0475 2.23592C19.4225 3.36092 16.535 1.27342 49.235 25.4484C58.385 32.2234 58.6725 32.4359 60.2225 34.0609C61.5225 35.4234 62.4225 36.6484 63.0975 37.9859C63.96 39.6984 64.16 40.8109 63.785 41.8734C63.51 42.6359 63.0975 43.1234 61.9725 43.9859C61.435 44.4109 60.71 45.0984 60.3725 45.5109C59.7725 46.2359 59.5725 46.5609 58.06 49.3234C56.21 52.6985 53.5975 56.111 50.61 59.086C48.785 60.8985 46.185 63.0485 45.2725 63.4985C44.335 63.961 43.0975 64.086 42.1725 63.786ZM43.9725 61.736C44.96 61.461 49.2725 57.611 51.46 55.0485C53.2475 52.961 56.0225 48.9984 55.9475 48.6609C55.9225 48.5859 55.01 47.8484 53.91 47.0234C52.7475 46.1609 51.7725 45.3234 51.5725 45.0359C51.0975 44.3484 50.71 43.4359 50.61 42.7609L50.535 42.1859L49.285 41.4859C44.0225 38.5484 39.9975 34.4484 37.085 29.0609L36.41 27.8234L35.035 26.9984C29.8475 23.8484 27.385 21.7359 23.16 16.7984C17.1225 9.72343 10.785 5.86092 5.24755 5.86092C4.18505 5.86092 2.78505 6.04842 2.49755 6.22342C2.41005 6.27342 2.27255 6.66092 2.19755 7.08592C1.96005 8.39842 2.42255 10.0984 3.31005 11.1734C3.62255 11.5359 9.92255 16.9859 10.41 17.3109C10.5475 17.3984 12.885 18.4359 15.5975 19.6234C18.46 20.8609 20.885 21.9984 21.3725 22.3234C22.4225 23.0109 23.4475 24.1359 24.01 25.2109C24.2475 25.6734 26.085 30.7484 28.085 36.4734C30.0975 42.2109 31.7475 46.9234 31.76 46.9359C31.7725 46.9609 32.2225 47.0609 32.735 47.1734C34.085 47.4484 35.285 47.8734 36.56 48.5359C38.6475 49.6109 39.8225 50.811 40.5725 52.636C41.235 54.236 41.3975 55.261 41.3975 58.0735C41.41 60.9485 41.4475 61.0485 42.4725 61.586C43.085 61.886 43.3225 61.911 43.9725 61.736ZM24.6725 53.811C26.1225 53.4235 27.0725 52.661 27.9475 51.1985C28.385 50.4735 28.9975 49.0859 28.91 49.0109C28.885 48.9859 28.3975 49.0234 27.835 49.0984C24.8975 49.4984 23.1225 49.0109 21.4475 47.3609C20.9725 46.9109 20.5975 46.6109 20.5975 46.6984C20.5975 47.5109 21.135 53.361 21.2225 53.586C21.285 53.736 21.4725 53.9235 21.6225 53.986C21.985 54.1485 23.835 54.036 24.6725 53.811ZM28.0475 46.9484L29.435 46.7984L25.91 36.7234C23.9725 31.1859 22.235 26.3734 22.035 26.0359C21.5225 25.1609 20.51 24.1984 19.6225 23.7484C18.9725 23.4234 12.01 20.3609 11.91 20.3609C11.8975 20.3609 12.335 21.4734 12.8975 22.8234L13.9225 25.2734L16.9225 26.1234C20.16 27.0484 20.4725 27.2109 20.4725 27.9984C20.4725 28.4859 19.985 28.9859 19.51 28.9859C19.31 28.9859 18.2725 28.7359 17.1975 28.4234C16.1225 28.1109 15.185 27.8609 15.11 27.8609C15.0475 27.8609 15.235 28.4359 15.5225 29.1359L16.06 30.4234L17.9225 30.9484C21.91 32.0859 21.9725 32.1234 21.9725 32.9234C21.9725 33.4734 21.51 33.9859 21.035 33.9859C20.8475 33.9859 19.9225 33.7609 18.9725 33.4859C18.0225 33.2109 17.21 32.9859 17.185 32.9859C17.1225 32.9859 18.085 35.3859 18.21 35.5109C18.2475 35.5609 19.335 35.8984 20.5975 36.2609C23.1475 36.9734 23.4725 37.1609 23.4725 37.9109C23.4725 38.2359 23.385 38.4109 23.085 38.6609C22.8725 38.8359 22.6225 38.9859 22.51 38.9859C22.36 38.9859 21.4725 38.7484 19.4475 38.1609C19.285 38.1109 19.36 38.3734 19.7725 39.3734C20.0725 40.0734 20.3975 40.6859 20.485 40.7359C20.585 40.7859 21.51 41.0734 22.535 41.3609C23.96 41.7484 24.4725 41.9484 24.6975 42.1859C25.0475 42.5734 25.0475 43.0984 24.71 43.5359C24.385 43.9609 23.8725 43.9609 22.4975 43.5609C21.935 43.3984 21.4725 43.3109 21.4725 43.3734C21.4725 43.6984 22.2475 45.1359 22.6725 45.6109C23.9475 47.0109 24.9725 47.2734 28.0475 46.9484ZM58.9975 43.8109C59.385 43.3734 60.135 42.6984 60.66 42.2984C61.185 41.9109 61.6725 41.4359 61.735 41.2484C62.2475 39.9484 59.885 36.3359 56.935 33.8859C56.3475 33.3984 55.9725 33.1734 55.935 33.2734C55.8975 33.3484 55.1975 35.0609 54.3725 37.0609C52.685 41.1484 52.5475 41.5734 52.6475 42.2859C52.81 43.3484 53.2975 43.9234 55.2225 45.3609L57.0225 46.6984L57.6475 45.6484C57.9975 45.0734 58.61 44.2484 58.9975 43.8109ZM52.5225 35.9609C53.41 33.8109 54.135 31.9859 54.1475 31.8984C54.16 31.8234 50.085 28.7359 45.0975 25.0609C34.71 17.3734 35.71 17.8734 36.285 20.6609C37.835 28.3484 42.51 34.9484 49.285 39.0234C50.0475 39.4859 50.7225 39.8609 50.785 39.8609C50.86 39.8609 51.635 38.0984 52.5225 35.9609ZM35.0475 24.2109C34.31 21.6484 33.7225 18.6109 33.7225 17.3359C33.7225 17.0359 33.6475 16.6984 33.5725 16.5859C33.385 16.3609 19.2225 5.89842 18.285 5.29842C16.685 4.27342 14.4725 3.32342 12.535 2.82342C10.5725 2.32342 9.54755 2.18592 7.53505 2.18592C5.37255 2.17342 4.98505 2.28592 4.34755 3.16092L3.96005 3.67342L5.81005 3.76092C7.98505 3.84842 9.72255 4.24842 11.8475 5.14842C16.2225 6.98592 20.9225 10.7609 25.11 15.7984C26.9975 18.0734 28.885 19.9609 30.8225 21.5234C32.26 22.6734 34.81 24.4734 35.0225 24.4859C35.0725 24.4859 35.085 24.3609 35.0475 24.2109Z" fill="var(--fill-0, #8F8F8F)"/>
<path id="Vector_2" d="M47.7226 34.6484C47.4226 34.2609 47.4226 33.9234 47.7351 32.1734C47.9851 30.7234 48.8226 30.1859 49.61 30.9734C50.035 31.3984 50.035 31.4359 49.785 32.9234C49.4725 34.7234 49.31 34.9859 48.4226 34.9859C48.0976 34.9859 47.9226 34.8984 47.7226 34.6484Z" fill="var(--fill-0, #8F8F8F)"/>
<path id="Vector_3" d="M43.8725 31.8609C43.31 31.6234 43.2225 31.0859 43.4975 29.5484C43.7725 27.9859 44.01 27.6109 44.6725 27.6109C45.2476 27.6109 45.4601 27.7234 45.6726 28.1359C45.8351 28.4609 45.8351 28.6234 45.6101 29.8609C45.3226 31.4234 45.2101 31.6984 44.7725 31.8609C44.3975 32.0109 44.2475 32.0109 43.8725 31.8609Z" fill="var(--fill-0, #8F8F8F)"/>
</g>
</svg>
