<svg preserveAspectRatio="none" width="100%" height="100%" overflow="visible" style="display: block;" viewBox="0 0 64 63.925" fill="none" xmlns="http://www.w3.org/2000/svg">
<g id="Group">
<path id="Vector" d="M16.875 61.3125C13.0625 59.8875 9.625 58.5625 9.25 58.3625C8.2375 57.85 7.125 56.675 6.6 55.55C6.0125 54.3125 0 36.2125 0 35.675C0 34.55 0.9375 33.2125 1.9375 32.9375C2.2 32.875 4.7875 32.625 7.7 32.4125L13 32V17.8C13 5.3875 13.025 3.575 13.1875 3.3375C13.575 2.7875 18.5625 1.3625 22.2875 0.75C25.925 0.1375 27.7625 0 32.0625 0C36.3625 0 38.3875 0.1625 41.875 0.75C45.5 1.3625 50.4375 2.8 50.8125 3.3375C50.975 3.575 51 5.3 51 17.8V31.9875L56.2875 32.4C59.1875 32.625 61.7875 32.8625 62.0625 32.9375C63.0625 33.2125 64 34.5375 64 35.6875C64 35.9125 62.5625 40.4125 60.8125 45.675C58.4625 52.7125 57.5 55.45 57.15 56.0375C56.5875 56.9875 55.5875 57.9375 54.6375 58.4125C54.25 58.6125 50.8375 59.925 47.05 61.35L40.175 63.925H31.9875H23.8125L16.875 61.3125ZM38.875 61.675C38.875 61.3125 38.3375 59.9125 37.95 59.2375C37.125 57.825 35.2875 56.5125 33.6125 56.1125C31.3 55.575 28.8125 56.2625 27.125 57.9375C26.3 58.75 25.8375 59.4875 25.4125 60.6375C24.8875 62.075 24.1125 61.925 32 61.925C38.7375 61.925 38.875 61.925 38.875 61.675ZM23.3 60.675C23.4125 60.225 23.7375 59.3875 24.025 58.8C24.45 57.95 24.775 57.525 25.625 56.675C26.825 55.475 27.85 54.825 29.3125 54.3375C30.2 54.0375 30.5 54 32 54C33.5 54 33.8 54.0375 34.6875 54.3375C36.15 54.825 37.175 55.475 38.375 56.675C39.225 57.525 39.55 57.95 39.975 58.8C40.2625 59.3875 40.5875 60.2375 40.7 60.6875L40.9 61.5125L41.8 61.175C42.3125 60.975 42.7 60.75 42.725 60.6375C42.8 60.275 42.025 58.2875 41.4125 57.275C38.6125 52.5875 32.6625 50.6625 27.6625 52.825C24.8625 54.05 22.6 56.4875 21.6 59.3625C21.4 59.95 21.25 60.525 21.275 60.6375C21.3 60.75 21.675 60.975 22.1875 61.175C22.675 61.3625 23.075 61.5 23.075 61.5C23.0875 61.4875 23.1875 61.125 23.3 60.675ZM19.6 59.075C20.8 55.1125 23.9 51.95 27.8875 50.625C29.5875 50.0625 30.9375 49.875 32.675 49.9625C35.05 50.0875 37.225 50.8 39.175 52.1C41.6375 53.7375 43.525 56.25 44.3875 59.05C44.55 59.5625 44.6875 60.0125 44.7 60.025C44.7625 60.1125 53.575 56.75 54 56.4875C54.5625 56.1375 55.3 55.3125 55.6 54.7125C55.7375 54.45 57.2375 50.0625 58.9375 44.95C61.0875 38.5 62 35.575 61.95 35.3625C61.9125 35.2 61.7625 35 61.6375 34.925C61.425 34.825 52.45 34.05 51.375 34.05H51V37.675V41.3125L50.6875 41.6125C50.2875 42.025 49.7125 42.025 49.3125 41.6125L49 41.3125V22.95V4.5875L47.725 4.2C44.625 3.25 41.5 2.625 37.85 2.2125C35.175 1.9125 28.825 1.9125 26.15 2.2125C22.525 2.625 19.6875 3.1875 16.5375 4.125L15 4.5875V22.95V41.3125L14.675 41.6375C14.4125 41.9 14.275 41.9375 13.9 41.875C13 41.7375 13 41.7125 13 37.6625V34.05H12.6625C11.6125 34.05 2.5625 34.825 2.3625 34.925C2.2375 35 2.0875 35.2 2.05 35.3625C2 35.575 2.9125 38.5 5.0625 44.95C6.7625 50.0625 8.2625 54.45 8.4 54.7125C8.7375 55.3875 9.575 56.275 10.1875 56.5875C10.6875 56.85 18.95 60.0125 19.1875 60.0375C19.2625 60.0375 19.45 59.6125 19.6 59.075Z" fill="var(--fill-0, #8F8F8F)"/>
</g>
</svg>
